<?xml version="1.0" standalone="no"?>
<!DOCTYPE svg PUBLIC "-//W3C//DTD SVG 20010904//EN"
 "http://www.w3.org/TR/2001/REC-SVG-20010904/DTD/svg10.dtd">
<svg version="1.0" xmlns="http://www.w3.org/2000/svg"
 width="700.000000pt" height="424.000000pt" viewBox="0 0 700.000000 424.000000"
 preserveAspectRatio="xMidYMid meet">

<g transform="translate(0.000000,424.000000) scale(0.100000,-0.100000)"
fill="#000000" stroke="none">
<path d="M4296 4110 c-103 -5 -151 -11 -156 -20 -21 -33 -60 -383 -60 -532 l0
-86 -42 -7 c-24 -3 -89 -16 -146 -27 l-103 -22 7 -50 c12 -90 -3 -181 -37
-223 -9 -10 -6 -13 12 -13 13 0 37 -7 53 -15 15 -8 32 -12 38 -9 16 10 74 -5
110 -30 19 -12 47 -26 62 -30 16 -4 41 -20 57 -36 34 -33 33 -38 15 110 -8 63
-18 167 -22 231 -6 110 -5 117 13 123 47 15 363 24 539 16 104 -5 190 -8 191
-7 1 2 11 68 23 147 21 142 57 325 84 426 l13 51 -120 7 c-141 7 -323 6 -531
-4z"/>
<path d="M5818 3816 c-32 -84 -80 -227 -108 -316 -27 -90 -51 -164 -52 -166
-2 -1 -57 11 -123 26 -238 57 -681 128 -698 111 -4 -4 -11 -134 -14 -287 l-6
-280 113 -18 c150 -24 571 -127 592 -145 4 -3 -2 -60 -13 -126 -26 -162 -61
-426 -57 -431 2 -2 122 -55 267 -118 l262 -114 125 256 c68 140 124 261 124
267 0 13 -206 95 -510 202 -102 35 -187 66 -189 68 -7 8 119 568 131 581 11
10 451 -132 716 -231 85 -31 155 -55 157 -53 2 2 46 75 97 163 52 88 131 220
176 293 45 73 82 137 82 141 0 11 -24 20 -255 104 -221 80 -428 145 -614 192
-77 19 -142 35 -143 35 -2 0 -29 -69 -60 -154z"/>
<path d="M3117 3929 c-111 -26 -239 -143 -303 -276 -30 -64 -43 -81 -54 -76
-26 12 -329 15 -434 4 -199 -21 -251 -74 -280 -286 -27 -189 -36 -358 -36
-655 0 -352 11 -466 73 -783 3 -15 -8 -13 -103 14 -99 29 -332 32 -427 6 -156
-42 -253 -132 -288 -266 -12 -49 -21 -54 -110 -66 -62 -9 -117 -59 -135 -125
-7 -25 -14 -50 -15 -56 -2 -6 -30 -14 -62 -18 -71 -8 -135 -38 -153 -70 -10
-19 -11 -71 -7 -223 6 -251 16 -290 87 -355 91 -84 167 -93 387 -47 76 16 120
20 194 16 96 -5 96 -5 160 -52 74 -54 132 -85 208 -110 103 -34 444 -5 544 47
22 11 61 42 87 69 55 58 88 64 116 22 59 -91 197 -199 312 -245 48 -19 74 -22
167 -21 132 1 294 26 352 54 53 26 118 96 149 162 13 29 24 57 24 63 0 6 24
14 53 18 108 14 273 61 617 176 195 66 401 130 457 145 l103 25 47 -36 c27
-21 77 -51 113 -68 62 -30 70 -31 180 -29 123 2 248 22 304 48 42 20 120 101
142 149 15 29 23 35 62 41 25 4 139 3 253 -1 l209 -7 36 28 c49 37 110 134
134 214 16 51 18 66 8 73 -18 11 -16 12 -122 -27 -129 -46 -158 -46 -80 1 130
80 144 87 179 81 33 -5 34 -5 24 19 -5 14 -9 76 -9 139 0 146 -14 185 -65 184
-18 0 -18 -1 3 -9 65 -27 15 -87 -111 -135 -42 -16 -54 -17 -105 -5 -72 16
-77 19 -56 35 15 10 6 13 -57 17 -60 4 -93 13 -165 46 -88 41 -184 71 -234 73
-20 1 -18 3 10 9 l35 7 -38 2 c-31 1 -47 10 -95 57 -80 78 -154 111 -282 129
-58 8 -127 19 -155 24 -63 12 -108 13 -101 2 9 -14 -42 -31 -94 -31 l-48 0 45
-90 45 -90 46 4 c26 3 89 8 141 11 53 3 119 15 149 25 59 21 75 19 51 -5 -33
-33 -131 -57 -257 -63 -88 -3 -122 -8 -119 -17 21 -53 57 -181 57 -199 0 -22
2 -23 38 -15 67 15 321 38 552 49 176 9 237 9 282 0 32 -7 61 -16 63 -20 3 -5
-61 -11 -143 -14 -442 -19 -471 -22 -500 -45 -64 -51 -162 -71 -384 -78 -138
-4 -208 -2 -318 12 -77 10 -138 20 -137 22 4 3 302 33 334 33 6 0 -1 13 -15
28 -15 15 -84 93 -153 172 -69 80 -147 169 -173 198 -26 28 -45 52 -41 52 4 0
55 -42 113 -94 142 -124 314 -261 353 -281 97 -51 85 75 -36 355 -98 229 -146
309 -215 359 -20 14 -71 67 -112 116 -42 50 -95 108 -119 130 -27 25 -34 29
-17 10 14 -16 56 -76 93 -133 39 -60 81 -112 101 -125 39 -26 43 -44 11 -56
-12 -5 -117 -20 -232 -34 -235 -29 -271 -27 -338 20 -23 16 -82 54 -132 83
-108 64 -192 126 -205 151 -16 28 -12 69 9 98 43 60 217 126 361 137 59 5 88
2 140 -15 35 -11 66 -18 69 -15 3 2 5 30 5 60 1 47 -3 59 -24 76 -22 17 -25
18 -36 4 -14 -19 -24 -10 -24 21 0 35 -18 63 -40 63 -14 0 -20 -7 -20 -23 0
-13 -6 -31 -14 -42 -12 -16 -14 -13 -20 33 -7 58 -26 82 -62 82 -26 0 -29 -4
-39 -65 l-7 -40 -13 48 c-7 27 -21 58 -32 69 -19 19 -22 19 -51 4 -17 -9 -36
-25 -42 -36 -12 -23 -58 -27 -93 -8 -12 6 -41 16 -64 22 -35 9 -40 13 -30 26
7 8 30 24 51 35 31 16 50 38 88 105 49 86 57 123 42 198 -6 28 -10 31 -72 43
-213 40 -422 243 -422 409 0 43 5 64 20 83 l21 26 63 -23 c150 -54 268 -159
335 -299 23 -46 41 -91 41 -100 0 -9 5 -17 11 -17 8 0 9 20 5 68 -14 141 -100
252 -253 327 -123 61 -231 79 -336 54z m157 -489 c135 -99 265 -147 363 -135
57 7 65 -1 34 -29 -30 -27 -94 -31 -164 -10 -82 25 -244 133 -328 220 -91 96
-109 135 -25 57 36 -35 91 -81 120 -103z m-718 121 c-8 -12 -80 -27 -221 -46
-130 -17 -167 -31 -183 -72 -37 -93 -68 -315 -82 -580 -6 -114 -14 -255 -18
-313 l-7 -105 -3 165 c-6 289 25 693 63 827 24 83 80 111 249 123 153 11 208
11 202 1z m150 -139 c6 -4 13 -17 16 -29 6 -21 2 -23 -35 -24 -23 -1 -138 -4
-255 -8 -160 -4 -212 -3 -212 6 0 22 30 42 73 47 23 3 53 7 67 10 47 7 335 6
346 -2z m-458 -372 c11 0 6 -10 -16 -32 -18 -18 -39 -42 -48 -53 -15 -19 -15
-19 -10 5 3 14 6 47 6 73 l0 48 26 -20 c15 -12 34 -21 42 -21z m1492 -114 c0
-2 3 -12 7 -22 6 -15 1 -16 -55 -10 l-61 7 -168 -86 c-317 -163 -333 -162 -40
2 192 107 205 113 260 113 31 0 57 -2 57 -4z m-950 -131 c69 -8 144 -15 167
-15 31 0 43 -4 43 -14 0 -14 -30 -22 -141 -40 -50 -9 -124 9 -199 47 -75 39
-90 59 -32 46 21 -4 94 -15 162 -24z m-302 -30 c35 -55 80 -200 97 -316 20
-133 19 -133 45 -119 12 6 53 13 93 16 71 5 71 5 35 -9 -21 -8 -53 -29 -73
-46 -43 -37 -53 -38 -65 -7 -5 15 -20 27 -39 31 -49 11 -68 45 -76 133 -10
131 -33 279 -49 316 -20 48 1 48 32 1z m525 -173 c-30 -27 -43 -48 -48 -77 -9
-53 -39 -108 -71 -134 -39 -31 -49 -26 -13 7 25 23 32 38 39 92 11 87 16 96
64 125 61 37 77 30 29 -13z m183 -37 c18 -14 17 -14 -12 -9 -17 3 -60 -2 -95
-11 -84 -22 -94 -23 -94 -5 0 32 164 53 201 25z m31 -100 c-1 0 -36 2 -77 5
-53 4 -68 8 -50 13 49 13 105 12 117 -2 7 -8 12 -15 10 -16z m-967 -344 c17
-32 53 -84 78 -114 26 -30 52 -69 58 -85 l11 -30 -75 -12 c-58 -9 -76 -9 -82
0 -18 30 -71 332 -69 400 0 32 3 28 24 -32 13 -37 38 -94 55 -127z m775 145
c25 -15 52 -40 60 -56 14 -27 21 -121 10 -132 -3 -3 -29 3 -58 13 -31 11 -81
18 -123 19 -88 0 -113 16 -121 77 -6 48 13 88 50 104 39 16 133 3 182 -25z
m903 -406 c103 -16 108 -17 157 -60 25 -22 61 -42 81 -46 79 -15 7 -48 -187
-87 -237 -48 -384 -55 -377 -18 3 13 22 17 98 22 105 7 304 34 363 50 34 9 37
12 25 26 -30 38 -92 73 -126 73 -51 0 -107 19 -121 43 -11 17 -11 19 4 14 9
-4 46 -11 83 -17z m1997 -192 l40 -11 -30 -8 c-29 -8 -99 5 -119 23 -15 12 63
10 109 -4z m-1545 -184 c6 -6 -48 -24 -143 -47 -146 -36 -155 -37 -242 -27
-49 5 -133 10 -185 10 -55 0 -90 4 -85 9 10 9 214 57 275 65 63 7 371 -1 380
-10z m-445 -112 l40 -8 -65 -16 c-48 -12 -132 -18 -320 -23 -140 -3 -252 -3
-248 0 3 4 44 17 90 30 74 21 104 24 273 24 105 0 208 -3 230 -7z m-940 -63
c150 -20 222 -23 438 -22 143 0 255 -3 250 -7 -4 -4 -46 -21 -93 -36 -81 -27
-93 -29 -270 -28 -191 0 -252 7 -604 65 -100 16 -218 29 -265 29 -77 0 -244
-21 -295 -36 -11 -4 -16 -2 -12 4 9 15 90 40 161 51 105 17 491 5 690 -20z
m904 -244 c-18 -17 -338 -57 -519 -65 -113 -5 -234 -14 -270 -20 -36 -6 -78
-13 -95 -15 -53 -9 77 35 180 60 88 22 124 25 305 26 113 1 239 5 280 9 107
10 124 11 119 5z"/>
<path d="M307 3193 c-35 -148 -30 -311 13 -409 23 -53 82 -118 135 -150 40
-23 155 -67 161 -61 2 2 -11 45 -27 97 -26 80 -31 111 -31 196 0 55 2 110 6
121 6 19 -3 26 -68 57 -86 42 -117 74 -147 156 -12 33 -23 60 -24 60 -1 0 -9
-30 -18 -67z"/>
<path d="M1747 3189 c-193 -72 -388 -132 -524 -161 l-103 -21 0 -112 c0 -117
19 -214 59 -307 13 -31 16 -50 10 -54 -6 -3 -97 -6 -202 -7 -142 0 -211 4
-266 16 -41 9 -77 14 -80 12 -17 -18 109 -221 194 -313 32 -34 56 -64 54 -66
-6 -7 -170 49 -219 74 -25 12 -65 39 -90 59 l-45 36 35 -45 c48 -61 162 -175
237 -238 76 -62 234 -143 349 -178 99 -30 123 -28 68 6 -99 62 -361 294 -310
276 52 -18 220 -38 376 -43 173 -6 174 -6 160 14 -8 11 -45 60 -82 108 -80
107 -176 283 -156 289 7 2 74 13 148 25 123 19 387 81 485 113 l40 13 7 160
c4 88 13 215 21 283 9 83 10 122 2 121 -5 -1 -81 -28 -168 -60z"/>
<path d="M241 3194 c0 -11 3 -14 6 -6 3 7 2 16 -1 19 -3 4 -6 -2 -5 -13z"/>
<path d="M220 3118 c-38 -178 -33 -365 16 -535 32 -114 129 -308 200 -403 123
-164 320 -343 521 -474 93 -61 105 -66 140 -60 33 5 41 11 55 45 19 45 34 30
-113 117 -141 84 -287 199 -409 321 -168 168 -273 336 -345 554 -44 132 -59
243 -53 378 3 60 4 109 3 109 -2 0 -8 -24 -15 -52z"/>
<path d="M141 2914 c0 -11 3 -14 6 -6 3 7 2 16 -1 19 -3 4 -6 -2 -5 -13z"/>
<path d="M4242 2913 c-36 -3 -42 -7 -37 -21 4 -9 10 -42 14 -73 6 -54 9 -59
59 -98 29 -23 85 -81 125 -129 39 -48 101 -115 137 -149 63 -61 66 -63 120
-63 91 -1 202 -17 210 -30 4 -7 11 -45 15 -85 l6 -72 62 -12 c34 -7 105 -19
157 -26 116 -16 190 -43 263 -95 l55 -39 10 77 c5 42 7 80 3 84 -11 12 -271
97 -420 138 -79 22 -147 42 -150 45 -8 8 -28 187 -42 372 -10 131 -15 163 -28
169 -18 8 -493 14 -559 7z"/>
<path d="M126 2815 c-12 -96 -2 -271 23 -392 60 -289 201 -559 405 -771 97
-100 235 -222 253 -222 28 0 83 23 83 34 0 8 15 37 34 64 l33 50 -81 56 c-276
188 -483 412 -607 658 -85 168 -119 295 -128 468 l-7 125 -8 -70z"/>
<path d="M4020 2711 c-28 -8 -38 -45 -39 -144 l-1 -58 137 -65 c127 -61 140
-65 185 -59 26 4 48 10 48 14 0 5 -62 35 -137 69 l-138 61 0 43 c0 24 3 67 7
96 7 49 6 52 -15 51 -12 -1 -33 -4 -47 -8z"/>
<path d="M3859 2673 c-22 -3 -28 -11 -33 -41 -3 -20 -6 -54 -6 -74 0 -21 -3
-38 -7 -38 -5 1 -26 25 -48 55 -41 55 -62 65 -108 47 -15 -6 1 -32 104 -162
66 -85 127 -155 135 -154 55 3 64 5 64 15 0 6 -19 33 -41 61 -23 27 -40 50
-38 52 2 2 50 -18 107 -45 102 -48 105 -48 155 -37 49 10 51 11 27 22 -14 6
-80 36 -148 68 -100 47 -122 61 -118 75 3 10 8 51 12 91 7 79 10 75 -57 65z"/>
<path d="M106 2260 c30 -424 203 -841 468 -1129 l54 -58 4 101 c4 102 23 163
61 194 11 10 -10 36 -122 149 -233 236 -377 473 -447 735 l-24 93 6 -85z"/>
<path d="M1785 2145 c-44 -7 -131 -17 -192 -21 -62 -4 -113 -10 -113 -13 0 -4
24 -30 54 -60 l53 -52 154 -3 c85 -2 161 -6 170 -10 17 -7 16 11 -6 142 -7 36
-3 36 -120 17z"/>
<path d="M4720 2080 c-16 -6 -6 -7 30 -3 30 3 57 7 59 9 8 7 -64 2 -89 -6z"/>
<path d="M6341 1328 c-30 -90 -86 -181 -149 -240 l-54 -51 45 6 c25 4 99 9
166 13 66 4 121 11 121 16 0 60 -59 250 -93 298 -14 21 -16 19 -36 -42z"/>
<path d="M5620 1010 c0 -5 -27 -38 -60 -73 l-59 -64 112 38 c62 22 173 54 247
73 l135 35 -187 0 c-115 1 -188 -3 -188 -9z"/>
<path d="M4605 875 c-66 -19 -248 -77 -405 -130 -271 -92 -525 -165 -573 -165
-16 0 -29 -13 -47 -47 -40 -75 -124 -159 -193 -192 -73 -36 -196 -59 -357 -67
-133 -7 -201 6 -310 61 -77 39 -207 138 -233 179 l-18 27 -43 -35 c-62 -52
-120 -74 -247 -95 -175 -29 -302 -35 -385 -18 -89 19 -188 64 -269 122 -59 41
-70 46 -141 52 -95 8 -93 -2 14 -56 382 -192 826 -321 1277 -373 161 -18 522
-15 680 5 408 54 758 147 1160 308 263 105 806 352 760 345 -22 -4 -92 -9
-156 -13 -101 -5 -125 -3 -187 16 -39 12 -101 41 -138 66 -37 25 -67 45 -68
44 0 0 -55 -15 -121 -34z"/>
</g>
</svg>
